 <svg  version="1.0" xmlns="http://www.w3.org/2000/svg"  width="330.000000pt" height="580.000000pt" viewBox="0 0 330.000000 580.000000"  preserveAspectRatio="xMidYMid meet">  <g transform="translate(0.000000,580.000000) scale(0.050000,-0.050000)" fill="#6b3b81" stroke="none"> <path d="M2045 11305 c129 -3 341 -3 470 0 129 4 24 6 -235 6 -259 0 -364 -2 -235 -6z"/> <path d="M1495 11286 c36 -5 94 -5 130 0 36 4 7 8 -65 8 -71 0 -101 -4 -65 -8z"/> <path d="M2965 11285 c52 -4 138 -4 190 0 52 4 10 8 -95 8 -104 0 -147 -4 -95 -8z"/> <path d="M3395 11266 c36 -5 90 -5 120 0 30 4 1 8 -65 8 -66 0 -91 -4 -55 -8z"/> <path d="M3943 11200 c40 -21 109 -81 155 -132 45 -52 82 -84 82 -72 0 61 -225 247 -294 243 -9 0 17 -18 57 -39z"/> <path d="M1510 11141 c-22 -8 -89 -22 -149 -29 -145 -19 -191 -50 -323 -219 -190 -242 -211 -285 -226 -463 -8 -88 -22 -227 -32 -310 -10 -82 -24 -330 -31 -550 -7 -220 -17 -406 -21 -414 -5 -7 -1 -18 7 -23 9 -6 14 -121 12 -257 -3 -135 -4 -417 -3 -626 7 -1499 -3 -2727 -23 -2891 -10 -78 -8 -139 3 -153 11 -13 15 -32 9 -41 -5 -9 -16 -155 -23 -326 -24 -552 -28 -646 -41 -859 -16 -265 -15 -586 2 -735 8 -63 15 -144 16 -179 5 -123 -232 -112 2213 -97 885 6 1268 15 1265 30 -3 11 2 21 10 21 8 0 16 263 16 585 1 322 7 1184 13 1915 6 732 10 1402 9 1490 -2 88 -2 295 -2 460 1 165 5 899 9 1630 5 976 0 1345 -17 1386 -12 31 -28 85 -34 120 -16 92 -142 333 -213 407 -84 88 -188 109 -583 117 l-338 7 -21 -58 c-22 -58 -69 -92 -92 -67 -7 8 -1 18 13 22 14 5 33 24 43 43 16 30 -7 34 -245 39 -145 3 -321 9 -393 15 -257 19 -791 26 -830 10z m470 -83 c0 -12 15 -17 33 -10 17 7 44 3 59 -9 16 -14 89 -19 197 -13 113 6 171 2 171 -12 0 -11 -5 -15 -12 -9 -7 7 -35 -9 -64 -35 -53 -49 -38 -110 27 -110 15 0 31 -7 36 -16 6 -8 -30 -16 -78 -17 -83 -1 -89 2 -89 51 -1 78 -82 156 -95 92 -3 -11 10 -20 28 -20 19 0 37 -10 41 -22 4 -12 -21 -20 -61 -20 -46 2 -65 10 -58 27 8 23 -14 32 -49 20 -8 -3 -12 -30 -9 -60 6 -51 1 -55 -65 -55 -40 0 -72 8 -72 17 0 10 27 15 60 11 68 -8 81 28 29 81 -37 36 -58 41 -38 9 8 -12 2 -30 -13 -40 -42 -26 -58 -22 -59 17 -1 26 -7 23 -20 -12 -12 -30 -30 -43 -49 -36 -17 7 -30 3 -30 -8 0 -10 10 -19 23 -19 13 0 18 -6 11 -12 -7 -7 -28 -6 -48 3 -53 23 -74 23 -90 0 -20 -28 -396 -42 -396 -14 0 31 41 50 62 29 24 -24 162 -7 153 20 -12 34 -115 30 -115 -5 -1 -27 -3 -28 -20 -1 -26 40 24 77 88 65 31 -6 63 6 90 33 49 49 79 57 41 11 -19 -23 -20 -36 -2 -54 14 -14 23 -15 23 -3 0 12 35 18 80 14 44 -3 80 3 80 14 0 11 -13 20 -28 20 -15 0 -33 14 -39 30 -10 25 -5 27 26 10 53 -28 87 -25 75 7 -7 19 8 28 50 29 33 1 65 7 71 13 19 19 45 12 45 -11z m678 -13 c-6 -37 5 -41 52 -17 70 37 173 18 119 -21 -20 -15 -44 -27 -54 -27 -10 0 -11 -10 -3 -23 10 -16 1 -20 -29 -12 -24 6 -48 3 -54 -7 -13 -21 -217 -21 -289 1 l-50 15 54 15 c29 8 58 28 65 45 9 24 18 25 39 7 19 -15 33 -16 41 -3 7 11 25 15 42 9 16 -6 29 -1 29 11 0 12 9 22 20 22 11 0 19 -7 18 -15z m962 -58 c109 -20 186 -47 215 -73 61 -55 21 -79 -62 -37 -35 17 -76 34 -91 36 -15 2 -33 12 -40 21 -11 15 -37 20 -167 28 -30 2 -55 13 -55 23 0 11 -13 9 -28 -4 -20 -16 -33 -16 -41 -2 -8 12 -33 22 -57 22 -42 2 -43 2 -4 19 44 18 79 15 330 -33z m8 -175 c-16 -41 -63 -55 -75 -23 -13 34 4 51 50 51 23 0 32 -10 25 -28z m343 -20 c7 -27 31 -53 53 -59 22 -6 35 -19 28 -30 -7 -11 5 -58 25 -106 21 -48 44 -150 51 -227 8 -77 19 -156 25 -175 6 -23 -1 -35 -21 -35 -25 0 -27 -10 -12 -51 29 -75 25 -149 -8 -149 -15 0 -34 15 -41 34 -11 30 -16 31 -32 5 -14 -22 -19 -14 -22 31 -5 98 5 159 28 173 14 9 2 24 -32 39 -37 17 -46 30 -29 40 18 11 9 30 -30 66 -43 40 -52 63 -43 107 l11 55 -30 -50 c-31 -50 -33 -48 -42 36 -7 66 -20 70 -49 15 -24 -44 31 -171 61 -142 5 4 21 -7 36 -23 24 -27 22 -29 -15 -17 -31 10 -43 5 -43 -17 0 -16 -16 -39 -35 -50 -19 -12 -24 -21 -11 -21 13 -1 30 9 37 21 10 15 20 15 36 -1 17 -17 15 -27 -6 -40 -23 -14 -18 -21 20 -31 67 -16 110 -103 50 -101 -40 1 -47 -19 -52 -154 -5 -112 39 -149 94 -80 26 33 28 32 23 -5 -4 -25 5 -40 24 -40 17 0 28 15 24 35 -4 25 4 31 29 21 26 -10 31 -5 21 22 -8 20 -6 29 6 22 11 -7 20 -3 20 9 0 11 9 21 21 21 13 0 14 -12 1 -36 -11 -20 -12 -48 -2 -63 18 -31 4 -83 -29 -106 -13 -9 -9 -15 11 -15 23 0 29 -15 22 -60 -11 -79 -20 -77 -135 40 -27 27 -49 38 -49 25 0 -14 -13 -25 -30 -25 -19 0 -30 -19 -30 -51 0 -45 5 -48 42 -28 60 32 72 6 16 -38 -25 -21 -60 -33 -77 -27 -25 9 -24 3 4 -29 19 -22 35 -51 35 -64 0 -12 9 -23 20 -23 11 0 20 10 20 21 0 12 11 15 23 7 16 -10 20 -4 12 16 -6 17 5 42 27 57 21 15 38 40 38 54 0 19 11 16 38 -9 61 -59 74 -946 13 -989 -10 -8 -17 -93 -15 -190 4 -212 4 -195 -7 -507 -12 -312 -12 -336 -9 -410 2 -33 1 -82 -1 -110 -2 -27 0 -63 4 -78 6 -23 -57 -27 -383 -22 -404 5 -2025 7 -2500 3 -384 -4 -399 0 -373 98 14 50 27 69 37 54 11 -18 15 -16 16 8 0 18 -14 38 -31 45 -33 12 -22 52 13 52 11 0 15 -9 8 -20 -7 -11 -8 -20 -2 -20 30 0 55 86 29 102 -20 12 -22 26 -6 52 42 71 34 178 -16 201 -25 12 -34 23 -20 24 14 0 25 27 25 60 0 32 9 64 20 71 11 7 19 23 18 36 -1 19 -3 19 -11 0 -13 -32 -67 -10 -67 27 0 16 9 24 19 18 12 -8 15 26 8 87 -16 130 0 176 48 141 19 -14 9 -1 -22 30 -39 38 -53 69 -46 97 6 23 2 54 -10 68 -15 17 -15 26 -1 26 12 0 20 57 19 145 -2 226 3 278 25 265 11 -7 14 1 8 19 -7 17 -21 31 -33 31 -11 0 -9 13 5 30 14 17 16 30 6 30 -11 0 -19 14 -19 30 0 17 7 30 17 30 9 0 15 26 12 59 -2 32 -11 54 -19 49 -8 -5 -21 2 -28 14 -8 12 -4 29 9 37 27 17 32 71 11 136 -11 36 -6 45 26 45 27 0 43 17 50 50 5 28 2 50 -8 50 -9 0 -17 -13 -17 -30 0 -16 -8 -30 -19 -30 -28 0 -49 42 -29 57 31 22 25 143 -6 143 -16 0 -23 9 -17 19 7 11 17 67 22 125 21 233 32 305 45 315 23 18 21 202 -2 187 -12 -7 -14 -2 -4 14 15 24 25 91 36 240 11 141 130 147 2384 137 59 0 196 2 230 3 138 7 202 5 275 -9 75 -14 84 -12 73 16 -7 18 -2 33 10 33 12 0 22 14 22 30 0 48 38 35 51 -18z m-1039 13 c-21 -21 -132 -23 -132 -2 0 9 33 17 73 17 41 0 67 -7 59 -15z m-85 -3605 c9 -9 41 -9 70 -1 29 8 202 12 383 9 182 -4 371 -6 420 -7 50 0 135 -8 190 -19 81 -15 103 -13 116 10 18 32 93 20 118 -19 18 -28 -5 -139 -32 -158 -12 -8 -14 -15 -5 -15 10 0 8 -12 -3 -26 -13 -15 -15 -37 -5 -53 24 -38 4 -81 -31 -68 -33 13 -29 -39 8 -107 39 -70 28 -77 -26 -15 -39 47 -54 53 -74 33 -20 -20 -18 -27 14 -36 22 -5 60 -41 85 -79 44 -67 38 -94 -11 -45 -36 36 -29 6 17 -75 50 -90 62 -302 18 -330 -24 -15 -22 -18 8 -19 28 0 33 -9 22 -35 -13 -30 -30 -186 -29 -260 0 -27 -1 -69 -3 -139 -1 -25 -12 -43 -24 -40 -13 2 -22 -7 -21 -21 1 -14 3 -44 5 -67 2 -29 13 -39 33 -31 39 15 39 -15 0 -47 -16 -13 -25 -32 -19 -41 5 -9 1 -21 -9 -28 -10 -6 -15 -69 -11 -141 4 -71 -1 -134 -11 -140 -37 -23 -17 -232 27 -272 35 -33 70 -318 39 -318 -13 0 -52 110 -49 133 3 15 -14 20 -42 14 -32 -8 -37 -5 -18 8 21 16 20 22 -5 32 -22 8 -32 0 -32 -26 0 -21 -10 -45 -23 -53 -13 -8 3 -24 40 -40 72 -30 81 -60 23 -78 -53 -17 -51 -47 5 -69 39 -16 40 -19 7 -20 -36 -1 -36 -4 8 -51 26 -27 40 -50 31 -50 -9 0 -29 16 -43 35 -24 31 -27 27 -27 -38 -1 -41 -11 -77 -24 -81 -34 -12 -38 -76 -5 -78 15 -2 39 -4 51 -5 13 -2 28 -16 33 -31 7 -20 -1 -24 -27 -15 -21 9 -42 4 -52 -11 -13 -20 -16 -20 -17 -1 0 14 -19 25 -41 25 -23 0 -36 8 -30 19 19 30 -17 39 -44 10 -16 -17 -17 -31 -4 -39 11 -7 14 -21 8 -31 -6 -11 -1 -19 12 -19 13 0 18 -13 12 -29 -6 -17 -3 -35 8 -42 10 -6 19 2 19 19 0 48 42 60 54 14 10 -39 30 -51 72 -44 10 2 10 -8 2 -21 -8 -13 -17 -68 -20 -122 -3 -55 -10 -104 -16 -110 -6 -5 -1 -28 11 -50 16 -30 14 -44 -6 -57 -21 -14 -19 -17 8 -18 52 0 43 -60 -10 -62 -30 -2 -34 -5 -12 -11 18 -5 37 -27 43 -48 6 -22 4 -35 -3 -31 -7 5 -16 -33 -19 -83 -5 -80 -2 -88 25 -66 22 19 25 35 10 63 -12 23 -13 38 -2 38 28 0 63 -114 63 -203 0 -77 -54 -117 -137 -100 -15 3 -21 -4 -14 -16 7 -11 -1 -21 -18 -21 -17 0 -31 -9 -31 -20 0 -12 -30 -16 -76 -8 -42 6 -110 3 -151 -9 -65 -17 -73 -16 -69 13 4 22 -9 34 -39 36 -29 2 -45 -9 -45 -29 0 -24 -5 -26 -24 -7 -34 34 -56 30 -58 -11 -3 -33 -3 -33 -12 0 -11 43 -20 44 -59 5 -40 -40 -61 -38 -87 10 -24 45 -70 55 -53 12 8 -22 -1 -25 -43 -13 -67 19 -168 -12 -125 -38 19 -12 5 -17 -41 -14 -37 2 -79 17 -92 33 -22 26 -25 25 -25 -7 -1 -30 -10 -35 -46 -24 -40 13 -315 37 -365 32 -11 -1 -60 -4 -110 -6 -49 -3 -94 -11 -100 -17 -20 -25 -247 19 -264 51 -10 17 -27 31 -38 31 -11 0 -15 -8 -9 -19 6 -10 2 -24 -9 -31 -11 -7 -16 -20 -10 -30 6 -9 -6 -13 -25 -10 -19 4 -59 8 -88 8 -36 2 -57 16 -67 47 -15 43 -16 43 -24 -11 -10 -62 -78 -70 -73 -8 1 19 -5 34 -15 34 -10 0 -18 -12 -18 -28 0 -38 -65 -51 -153 -31 -41 9 -80 13 -86 10 -59 -36 -464 -44 -551 -11 -46 17 -53 30 -46 81 6 35 -2 69 -17 81 -16 14 -20 35 -10 55 8 18 13 56 11 83 -7 64 -12 424 -7 450 2 11 3 27 1 35 -1 8 5 15 13 15 8 0 15 124 15 275 0 432 15 725 36 725 12 0 15 45 8 111 -9 87 -5 114 18 123 26 9 26 16 -2 46 -27 29 -32 95 -31 413 1 207 0 421 -2 475 -3 71 5 104 29 122 19 13 28 29 22 36 -20 19 -25 295 -6 283 10 -6 19 -4 20 5 1 9 4 36 6 60 3 24 -3 39 -13 33 -24 -15 -10 59 15 78 11 8 4 15 -16 15 -30 0 -32 7 -13 41 15 30 16 59 1 101 -12 36 -13 55 -1 48 10 -7 19 -3 19 9 0 11 -8 21 -18 21 -9 0 -22 19 -28 42 -8 31 -4 38 20 29 24 -9 29 -1 21 39 -5 27 -2 50 7 50 9 0 30 25 47 55 16 30 30 48 30 39 1 -9 12 -9 26 0 14 8 61 17 105 20 44 2 128 8 187 12 93 8 108 3 121 -32 15 -39 102 -65 102 -31 0 10 -18 17 -40 17 -109 0 -31 55 95 67 202 19 385 16 385 -7 0 -11 10 -20 21 -20 12 0 16 9 10 19 -23 36 838 37 876 1z"/> <path d="M1562 10882 c-21 -14 -18 -21 15 -31 28 -9 54 -2 74 18 37 36 -35 47 -89 13z"/> <path d="M2737 10423 c45 -45 58 -103 23 -103 -11 0 -20 -13 -20 -30 0 -16 -7 -28 -15 -25 -8 3 -17 -4 -20 -15 -3 -11 10 -20 28 -20 18 0 36 17 39 38 7 46 42 71 108 74 46 3 45 4 -10 16 -40 9 -59 25 -57 48 1 19 -9 34 -24 34 -14 0 -42 6 -61 13 -28 11 -26 5 9 -30z"/> <path d="M1180 10378 c0 -48 47 -42 56 9 4 19 -6 33 -25 33 -18 0 -31 -17 -31 -42z"/> <path d="M1420 10392 c0 -47 123 -74 154 -33 28 37 -6 57 -40 23 -30 -30 -45 -28 -83 9 -28 29 -31 29 -31 1z"/> <path d="M2360 10401 c0 -10 8 -24 18 -30 10 -6 14 -29 8 -51 -6 -22 -1 -40 12 -40 34 0 27 114 -8 127 -16 7 -30 4 -30 -6z"/> <path d="M3010 10321 c-21 -34 8 -56 95 -72 70 -13 126 27 89 64 -25 24 -169 31 -184 8z"/> <path d="M1843 10227 c-14 -16 -21 -44 -13 -63 12 -32 14 -31 33 2 30 53 15 99 -20 61z"/> <path d="M2854 10211 c-35 -35 -66 -196 -45 -230 7 -11 43 -21 79 -21 36 0 110 -13 164 -30 180 -54 198 -47 237 92 39 139 32 154 -78 172 -86 14 -90 -47 -9 -118 47 -40 33 -146 -16 -127 -16 6 -41 11 -56 11 -15 0 -40 13 -56 28 -35 36 -73 43 -119 23 -42 -18 -95 -1 -95 31 0 13 19 18 45 12 25 -6 63 -3 85 6 40 17 14 29 -46 21 -21 -3 -21 4 0 38 45 73 -32 151 -90 92z"/> <path d="M1906 10147 c-8 -20 2 -43 25 -60 54 -39 86 -32 37 9 -22 19 -37 46 -33 59 13 38 -14 30 -29 -8z"/> <path d="M3385 10165 c-14 -5 -25 -30 -25 -55 0 -61 -59 -316 -76 -333 -8 -8 -90 3 -184 24 -189 41 -320 49 -320 19 0 -10 24 -25 54 -33 29 -7 76 -25 105 -40 28 -15 72 -27 97 -27 26 0 86 -10 134 -22 89 -23 150 2 150 60 0 11 14 28 32 38 20 11 35 52 39 111 4 51 21 118 36 148 32 61 6 126 -42 110z"/> <path d="M1260 10120 c-38 -7 -88 -24 -110 -37 -36 -23 -33 -24 20 -10 134 34 213 19 272 -53 36 -43 76 -68 109 -69 96 -4 135 -91 64 -141 -228 -159 -366 -261 -372 -274 -12 -29 -43 -17 -103 41 -68 65 -75 93 -28 111 28 11 25 21 -22 67 -47 48 -53 66 -45 150 10 102 -16 125 -68 60 -24 -31 -23 -32 6 -10 28 22 32 19 32 -25 0 -27 -9 -50 -20 -50 -10 0 -14 -14 -7 -31 6 -17 -1 -35 -18 -42 -17 -6 -31 -26 -31 -44 -2 -26 -5 -25 -17 6 -12 30 -19 32 -32 12 -10 -18 -3 -37 21 -54 32 -23 40 -23 54 2 20 36 81 16 67 -22 -6 -15 0 -27 14 -27 15 -1 13 -8 -6 -21 -26 -17 -26 -22 5 -40 19 -12 35 -33 35 -48 0 -55 201 -88 241 -40 13 16 36 29 50 29 15 0 34 12 43 26 9 14 70 69 136 122 66 53 128 110 138 127 26 46 -43 165 -95 165 -22 0 -64 21 -92 47 -67 62 -154 88 -241 73z"/> <path d="M1180 9996 c-35 -29 -42 -45 -24 -51 21 -7 19 -18 -7 -47 -32 -35 -1 -138 42 -138 52 0 186 96 181 130 -4 22 -2 29 2 15 11 -31 66 -33 66 -3 0 103 -175 166 -260 94z"/> <path d="M2616 9977 c36 -10 60 -27 54 -38 -7 -10 -2 -19 11 -19 13 0 18 -14 11 -31 -11 -31 33 -97 53 -78 47 48 -77 192 -161 187 -19 -1 -4 -10 32 -21z"/> <path d="M1448 9830 c-32 -27 -69 -50 -83 -50 -14 0 -25 -13 -25 -30 0 -42 120 20 180 92 6 7 24 17 40 23 21 8 18 12 -12 13 -23 1 -68 -20 -100 -48z"/> <path d="M1260 9710 c-14 -17 -37 -30 -52 -30 -16 0 -28 -13 -28 -30 0 -16 9 -30 20 -30 11 0 20 9 20 20 0 11 12 20 28 20 36 0 80 53 55 68 -10 6 -30 -2 -43 -18z"/> <path d="M1715 9685 c-52 -60 -59 -121 -26 -234 67 -230 165 -254 369 -91 162 131 103 327 -89 291 -54 -10 -71 -5 -89 28 -27 51 -122 55 -165 6z m137 -133 c16 -43 -28 -112 -62 -99 -30 11 -41 89 -17 114 23 23 68 14 79 -15z m136 -38 c27 -42 -29 -106 -76 -87 -38 14 -42 75 -8 109 30 30 56 23 84 -22z"/> <path d="M3805 9295 c-31 -40 -20 -622 13 -662 37 -45 105 -41 158 8 52 48 57 111 35 429 -3 44 -7 100 -8 125 -6 94 -146 165 -198 100z"/> <path d="M1229 9285 c-59 -41 -89 -120 -89 -231 0 -199 50 -252 236 -249 129 2 176 26 116 59 -26 15 -33 43 -29 119 3 64 -5 106 -21 116 -19 11 -20 20 -4 30 35 21 26 87 -18 131 -40 40 -149 54 -191 25z m130 -104 c32 -58 26 -72 -32 -77 -85 -7 -89 -64 -5 -64 56 0 47 -126 -10 -137 -51 -10 -71 30 -72 142 0 147 70 228 119 136z"/> <path d="M3867 8312 c-2 -37 6 -45 36 -37 24 6 35 21 28 39 -6 16 -11 33 -11 38 0 35 -51 -3 -53 -40z"/> <path d="M1116 7938 c8 -55 12 -58 40 -31 25 26 26 36 5 62 -40 48 -55 37 -45 -31z"/> <path d="M3005 7792 c19 -14 35 -37 35 -49 0 -34 34 -28 48 9 17 45 16 48 -18 35 -16 -6 -30 -1 -30 11 0 12 -16 22 -35 21 -33 0 -33 -2 0 -27z"/> <path d="M1780 7689 c0 -19 21 -29 60 -29 33 0 60 4 60 8 0 4 -27 17 -60 29 -49 17 -60 15 -60 -8z"/> <path d="M4055 7084 c-19 -4 -36 -13 -37 -20 -23 -135 11 -172 59 -64 31 71 25 94 -22 84z"/> <path d="M3800 6767 c0 -18 16 -45 35 -59 53 -41 76 -33 35 12 -28 31 -30 40 -8 40 23 1 22 4 -2 20 -43 28 -60 24 -60 -13z"/> <path d="M988 6732 c-18 -39 -16 -54 14 -79 40 -35 75 -8 42 33 -11 13 -23 40 -27 59 -6 28 -11 26 -29 -13z"/> <path d="M1905 6566 c19 -5 35 -24 35 -42 1 -26 4 -28 18 -7 9 14 22 26 29 25 37 -5 38 3 3 18 -22 9 -58 17 -80 16 -33 0 -34 -2 -5 -10z"/> <path d="M3773 6527 c-68 -36 -75 -68 -62 -275 6 -100 14 -252 17 -338 7 -175 16 -191 117 -207 94 -15 107 13 122 249 7 103 17 194 23 204 6 9 2 23 -10 30 -11 7 -20 83 -20 170 0 192 -51 238 -187 167z"/> <path d="M1762 6519 c3 -16 -9 -58 -28 -94 -45 -84 -32 -83 33 3 46 61 49 71 21 94 -26 21 -31 21 -26 -3z"/> <path d="M2239 5662 c16 -30 11 -44 -24 -69 -36 -25 -39 -31 -11 -32 38 -1 66 -68 43 -106 -10 -18 -5 -17 19 2 25 20 28 37 14 64 -30 56 -25 105 10 92 52 -20 33 39 -21 64 -46 21 -49 20 -30 -15z"/> <path d="M3090 5626 c-67 -16 -88 -52 -23 -41 48 9 55 4 47 -27 -6 -21 -2 -38 8 -38 10 0 18 27 18 60 0 33 -2 59 -5 58 -3 -2 -23 -7 -45 -12z"/> <path d="M3740 5540 c0 -11 9 -20 20 -20 11 0 20 -18 20 -40 0 -22 9 -40 20 -40 26 0 25 32 -1 81 -22 41 -59 53 -59 19z"/> <path d="M2450 5516 c22 -12 43 -24 47 -27 3 -3 -14 -26 -39 -51 -48 -48 -21 -82 31 -39 52 44 52 102 -2 122 -67 25 -86 23 -37 -5z"/> <path d="M3865 5491 c19 -14 35 -35 35 -47 0 -12 9 -27 20 -34 11 -7 20 9 20 36 0 38 -13 52 -55 60 -48 9 -50 7 -20 -15z"/> <path d="M3803 5335 c-31 -31 -29 -109 2 -123 20 -10 20 -14 0 -24 -42 -19 -29 -82 20 -94 37 -9 40 -7 13 11 -29 19 -27 27 20 74 64 64 73 121 19 121 -22 0 -34 8 -28 19 18 29 -20 42 -46 16z"/> <path d="M2585 5137 c-12 -12 -17 -34 -11 -50 6 -15 0 -40 -13 -55 -12 -16 -16 -33 -7 -38 9 -6 31 25 50 68 33 77 23 117 -19 75z"/> <path d="M3798 4976 c-22 -59 -12 -121 13 -87 16 21 29 45 29 54 0 15 -38 45 -42 33z"/> <path d="M3856 4870 c-12 -27 -38 -50 -57 -50 -23 0 -34 -16 -34 -51 0 -41 8 -48 43 -40 23 6 31 5 17 -1 -14 -6 -25 -33 -25 -60 0 -33 -17 -56 -50 -72 -27 -12 -50 -30 -50 -39 0 -25 15 -21 76 17 l54 34 -38 -44 c-21 -24 -30 -45 -20 -47 10 -2 27 -5 38 -8 11 -2 31 -5 45 -7 14 -1 25 -16 25 -33 0 -25 5 -26 28 -5 24 22 23 28 -5 40 -18 7 -25 14 -14 15 10 0 5 12 -13 26 -45 36 -68 144 -27 128 43 -16 41 59 -1 83 -39 22 33 84 95 84 37 0 69 35 49 54 -6 7 -25 0 -42 -14 -25 -20 -30 -19 -30 8 0 49 -38 38 -64 -18z"/> <path d="M3169 4722 c6 -10 -4 -24 -22 -31 -25 -9 -28 -18 -12 -34 16 -16 30 -15 50 5 30 30 25 78 -8 78 -11 0 -14 -8 -8 -18z"/> <path d="M1675 4646 c-45 -12 -25 -46 26 -46 22 0 39 14 39 30 0 31 -5 32 -65 16z"/> <path d="M2270 4420 c-7 -11 -3 -20 8 -20 11 0 16 -16 10 -35 -10 -31 -8 -31 19 2 17 20 38 33 47 28 9 -6 34 -2 56 8 37 16 36 17 -5 9 -25 -4 -45 0 -45 10 0 25 -75 23 -90 -2z"/> <path d="M3651 3681 c-7 -11 -3 -21 10 -21 18 0 18 -7 2 -27 -25 -29 -11 -53 30 -53 34 0 33 40 -2 86 -17 23 -32 29 -40 15z"/> <path d="M3620 3510 c0 -16 11 -30 24 -30 13 0 8 -11 -11 -25 -31 -23 -31 -27 10 -52 37 -23 41 -23 31 3 -6 16 -1 39 10 50 12 12 16 35 9 53 -15 40 -73 41 -73 1z"/> <path d="M2981 3432 c-16 -20 -16 -33 -2 -41 28 -18 61 4 61 40 0 37 -28 37 -59 1z"/> <path d="M3265 3270 c-26 -30 -14 -90 19 -90 11 0 15 14 9 30 -7 17 -3 30 8 30 10 0 19 14 19 30 0 37 -22 37 -55 0z"/> <path d="M869 10998 c-93 -113 -161 -218 -142 -218 5 0 38 45 73 100 35 55 74 100 87 100 22 0 101 119 88 132 -3 3 -51 -48 -106 -114z"/> <path d="M587 9730 c0 -88 3 -122 8 -74 4 47 4 119 0 160 -5 40 -8 2 -8 -86z"/> <path d="M4386 9500 c0 -71 4 -101 8 -65 5 36 5 94 0 130 -4 36 -8 7 -8 -65z"/> <path d="M568 8950 c0 -165 3 -230 7 -144 4 86 4 221 0 300 -4 79 -7 9 -7 -156z"/> <path d="M4368 8690 c0 -143 3 -199 7 -124 4 75 4 192 0 260 -4 68 -7 7 -7 -136z"/> <path d="M548 6160 c0 -126 3 -178 7 -115 4 63 4 167 0 230 -4 63 -7 12 -7 -115z"/> <path d="M4346 5950 c0 -66 4 -91 8 -55 5 36 5 90 0 120 -4 30 -8 1 -8 -65z"/> <path d="M543 5489 l4 -359 13 340 c8 187 6 349 -3 359 -9 11 -16 -140 -14 -340z"/> <path d="M4346 5500 c0 -71 4 -101 8 -65 5 36 5 94 0 130 -4 36 -8 7 -8 -65z"/> <path d="M528 4900 c0 -126 3 -178 7 -115 4 63 4 167 0 230 -4 63 -7 12 -7 -115z"/> <path d="M4346 5010 c0 -66 4 -91 8 -55 5 36 5 90 0 120 -4 30 -8 1 -8 -65z"/> <path d="M508 4430 c0 -132 3 -183 7 -114 4 69 4 177 0 240 -4 63 -7 6 -7 -126z"/> <path d="M4346 4520 c0 -71 4 -101 8 -65 5 36 5 94 0 130 -4 36 -8 7 -8 -65z"/> <path d="M4349 3620 c0 -357 3 -504 6 -325 3 179 3 471 0 650 -3 179 -6 33 -6 -325z"/> <path d="M488 3940 c0 -126 3 -178 7 -115 4 63 4 167 0 230 -4 63 -7 12 -7 -115z"/> <path d="M488 3380 c0 -159 3 -225 7 -145 4 80 4 210 0 290 -4 80 -7 15 -7 -145z"/> <path d="M482 3044 c-3 -35 68 -171 107 -203 17 -14 31 -18 31 -8 0 10 -18 34 -40 52 -22 19 -40 53 -40 75 0 22 -8 40 -19 40 -10 0 -22 16 -27 35 -5 19 -10 23 -12 9z"/> <path d="M4320 2933 c0 -15 -23 -51 -52 -79 l-51 -52 -450 7 c-247 4 -473 0 -503 -9 -31 -10 158 -17 453 -18 l507 -2 58 62 c51 55 77 118 48 118 -5 0 -10 -12 -10 -27z"/> <path d="M2830 2800 c-27 -12 6 -18 106 -19 93 0 142 6 134 19 -15 24 -184 24 -240 0z"/> <path d="M975 2785 c135 -3 355 -3 490 0 135 4 25 6 -245 6 -269 0 -380 -2 -245 -6z"/> <path d="M1845 2785 c52 -4 138 -4 190 0 52 4 10 8 -95 8 -104 0 -147 -4 -95 -8z"/> <path d="M2346 2785 c52 -4 133 -4 180 0 46 5 3 8 -96 8 -99 0 -137 -4 -84 -8z"/> </g> </svg> 